<svg xmlns="http://www.w3.org/2000/svg" viewBox="0 0 254.89 204.92">
  <defs>
    <style>
      .af805018-36b7-4095-8bf2-5d2b9735b87f {
        fill: #231f20;
      }
    </style>
  </defs>
  <g id="ffae145c-560d-48fa-92b2-848cf6346b5d" data-name="graphics">
    <g>
      <path class="af805018-36b7-4095-8bf2-5d2b9735b87f" d="M499.27,274.36c4.41-3.07,5.36-7.5,3.35-12.09-2.87-6.56-11.13-12.08-20.62-10.9-12.34,1.55-17.61,10-19.85,16.43-4.65,13.38,4.85,31,21.44,24.16C491.16,288.82,488.17,282.08,499.27,274.36Z" transform="translate(-293.5 -182.17)"/>
      <path class="af805018-36b7-4095-8bf2-5d2b9735b87f" d="M514.26,284.51c-3.41,4.71,7,13.68,10.46,9.28,4.28-5.4,5.89-13.43-.94-13.4C523.78,280.39,517.05,280.65,514.26,284.51Z" transform="translate(-293.5 -182.17)"/>
      <path class="af805018-36b7-4095-8bf2-5d2b9735b87f" d="M533.37,277c-4.26-6.68-9.58-7.72-11.24-8.52a59.75,59.75,0,0,0-29-49.56c1.74-8.32-3.49-19.88-17.13-18.84-8.35.63-13.1,5.21-16.1,10.17-1.33,0-2.66.14-4,.27-3.09-7.86-11.28-10.77-19.72-4.88a80.51,80.51,0,0,0-119,5.93c-3.66-3.34-9.27-6-16.32-1.35-12,7.84-7.86,25,1.81,28.23a78.67,78.67,0,0,0-3.48,22.39c-2.49,4.65-4.32,11-4.71,19.69-.87,19.92,5.61,57.36,42.91,58.74,8.14.3,15.3-.82,21.22-3.3,10.29,0,49.49,0,63.47,0a57.86,57.86,0,0,0,19.55,3.2c23.18,0,39.29,1.74,44.05-10.78C493.67,327,505,324,515.33,317c14.78-.55,25.27-1.51,30.23-8.63C551.65,299.64,548.08,282.56,533.37,277ZM357.5,330.84c-10.46,5.3-19.07,5.25-22.69.29-4.9-6.73.82-19.41,13.38-26.41,10.27-5.73,17.33-4.44,20.66-.88C375.65,311.1,370.25,324.38,357.5,330.84Zm173.81-39.45c-2.24,9-9.86,15.25-14.12,18.27-10.48,7.43-21.78,11.92-30.4,13.62.75-9.86-5.54-21.91-19.79-24.45-12.5-2.23-17.84-.53-31.15-2.6-10-1.56-24.16-12.67-27.11-30.82-2-12.4-1.35-20.18-8.06-21.5-10.21-2-16.36,17.79-15.34,32.42,1.64,23.45,10.15,44.05,26.93,54.84H366.61c13.87-11.29,13.83-30.39,6.15-40.34-6.74-8.75-17-7.83-24.43-5.55-2.38-7.74-4.44-15.19-5.27-18.69C338.73,248.51,318.25,241,304.35,254a75.57,75.57,0,0,1,128.3-45.15c-4.46,5.52-4.4,12.74-4.38,17.41.06,14,12.33,15,16.12,8.68,4.48-7.46,2.12-5.15,9.84-12.48a9.39,9.39,0,0,0,2.64-7.27,55.63,55.63,0,0,1,55.9,32.9c1.73,5.82-2.59,9.15-2.12,15.76.33,4.75,3.75,6.53,8.76,8.57a18.54,18.54,0,0,0,2.87,1.23C529.07,276,533,284.64,531.31,291.39Z" transform="translate(-293.5 -182.17)"/>
    </g>
    <g>
      <path class="af805018-36b7-4095-8bf2-5d2b9735b87f" d="M364.31,372.11a7.64,7.64,0,0,0-2.22-.27,6.13,6.13,0,0,0-4.1,1.33,5.22,5.22,0,0,0-1.78,4.27,4.81,4.81,0,0,0,1.41,3.57,5,5,0,0,0,3.69,1.4,6,6,0,0,0,3-.78c-.11.43-.28,1.23-.54,2.38-.14.77-.29,1.57-.42,2.4a12.87,12.87,0,0,1-4.53.68,12,12,0,0,1-8.54-3.36,12.52,12.52,0,0,1-3.85-9.52,11.91,11.91,0,0,1,3.31-8.77q3.53-3.57,9.76-3.56a19.41,19.41,0,0,1,4.34.34Z" transform="translate(-293.5 -182.17)"/>
      <path class="af805018-36b7-4095-8bf2-5d2b9735b87f" d="M389.51,362.19q-.27,3.88-.71,12.63-.12,4.17-.44,11.59h-8l-.18-5.3-1.15.46a11.55,11.55,0,0,0-1.45.71l-.82-1.94c-.17-.42-.45-1-.83-1.78l-.16,7.85h-8.88l-.46-11.59q-.13-4.53-.71-12.63h11.07L376,377.11a16.62,16.62,0,0,0,2.21.06c.45,0,1.06-.05,1.83-.13l-.81-14.85Z" transform="translate(-293.5 -182.17)"/>
      <path class="af805018-36b7-4095-8bf2-5d2b9735b87f" d="M407.38,362.19l-.68,10-2.53-.33c-.88-.08-1.85-.14-2.9-.16l-.23,3c1.15,0,3,0,5.66-.07-.12.38-.3,1.11-.55,2.17-.15.64-.28,1.38-.4,2.23a21.39,21.39,0,0,0-2.28-.29c-.57,0-1.41,0-2.53,0l-.16,3.52c.79,0,2.24-.08,4.36-.21a14.62,14.62,0,0,0,2-.38c-.09.33-.28,1.11-.59,2.35-.14.64-.32,1.45-.53,2.43H391.88l-.46-12.36q-.14-4.24-.62-11.86Z" transform="translate(-293.5 -182.17)"/>
      <path class="af805018-36b7-4095-8bf2-5d2b9735b87f" d="M428.11,362.19q-.23,3.18-.61,11.12-.24,5.83-.4,13.42c-1.38-1.09-3.47-2.7-6.29-4.84l-5.46-3.84-.15,8.36h-5.08q-.12-3.2-.58-12.08c-.27-4.79-.53-8.84-.81-12.14h7.92l5.86,5.55q0-1.9-.06-3c0-.64-.09-1.49-.19-2.55Z" transform="translate(-293.5 -182.17)"/>
      <path class="af805018-36b7-4095-8bf2-5d2b9735b87f" d="M450.49,376.05c-.11.89-.27,2.58-.48,5.06-.1,1.48-.2,3.24-.3,5.27a23.38,23.38,0,0,1-6.16.61,16.34,16.34,0,0,1-9.79-2.71q-4.45-3.22-4.45-9.62,0-6.12,3.9-9.55c2.43-2.16,5.65-3.23,9.63-3.23a36.66,36.66,0,0,1,4.84.34l.87,9.95a8.83,8.83,0,0,0-3-.39,7.09,7.09,0,0,0-4.41,1.5,5.17,5.17,0,0,0-2.21,4.28,4.41,4.41,0,0,0,1.88,3.81,5.8,5.8,0,0,0,3.64,1.07l-.25-3.17c-.07-.65-.21-1.73-.43-3.22Z" transform="translate(-293.5 -182.17)"/>
      <path class="af805018-36b7-4095-8bf2-5d2b9735b87f" d="M472.85,374.49a11.61,11.61,0,0,1-3.53,9q-3.65,3.39-10.27,3.39a38.07,38.07,0,0,1-6.58-.43l-.42-11.72q-.21-4.5-.74-12.44a51.32,51.32,0,0,1,7.14-.49q6.65,0,10.39,3.1Q472.85,368.16,472.85,374.49Zm-6.47,1.94a4,4,0,0,0-1.5-3.42,4.9,4.9,0,0,0-3.18-.84l-.22,9.89a5.17,5.17,0,0,0,3.29-1.31A5.53,5.53,0,0,0,466.38,376.43Z" transform="translate(-293.5 -182.17)"/>
      <path class="af805018-36b7-4095-8bf2-5d2b9735b87f" d="M495.4,362.19l-.36,10.2q-.17,4.37-.16,13.22a24.36,24.36,0,0,1-8.23,1.45q-5.17,0-7.87-2.07a9.55,9.55,0,0,1-3.24-5.45,57.52,57.52,0,0,1-1-7.79c-.31-3.49-.51-6.68-.58-9.56h10.17q-.07,2.08-.19,6.78c0,1.75,0,4.22,0,7.43a13.37,13.37,0,0,0,.63,4.93,2.59,2.59,0,0,0,2.59,1.36,3,3,0,0,0,1.23-.32q0-3.24-.19-10.32c-.1-2.37-.3-5.65-.58-9.86Z" transform="translate(-293.5 -182.17)"/>
    </g>
  </g>
</svg>
