<svg xmlns="http://www.w3.org/2000/svg" viewBox="0 0 254.89 210.8">
  <defs>
    <style>
      .bf55ec02-4678-41cf-be82-11ee13ed949e, .e25f67af-7b6a-4d3a-94c0-a764e0377408 {
        fill: #231f20;
      }

      .bf55ec02-4678-41cf-be82-11ee13ed949e {
        font-size: 32.29px;
        font-family: ShowcardGothic-Reg, Showcard Gothic;
      }
    </style>
  </defs>
  <g id="a59f64ff-2771-436f-a542-0cecacf06376" data-name="graphics">
    <g>
      <path class="e25f67af-7b6a-4d3a-94c0-a764e0377408" d="M499.27,274.36c4.41-3.07,5.36-7.5,3.35-12.09-2.87-6.56-11.13-12.08-20.62-10.9-12.34,1.55-17.61,10-19.85,16.43-4.65,13.38,4.85,31,21.44,24.16C491.16,288.82,488.17,282.08,499.27,274.36Z" transform="translate(-293.5 -182.17)"/>
      <path class="e25f67af-7b6a-4d3a-94c0-a764e0377408" d="M514.26,284.51c-3.41,4.71,7,13.68,10.46,9.28,4.28-5.4,5.89-13.43-.94-13.4C523.78,280.39,517.05,280.65,514.26,284.51Z" transform="translate(-293.5 -182.17)"/>
      <path class="e25f67af-7b6a-4d3a-94c0-a764e0377408" d="M533.37,277c-4.26-6.68-9.58-7.72-11.24-8.52a59.75,59.75,0,0,0-29-49.56c1.74-8.32-3.49-19.88-17.13-18.84-8.35.63-13.1,5.21-16.1,10.17-1.33,0-2.66.14-4,.27-3.09-7.86-11.28-10.77-19.72-4.88a80.51,80.51,0,0,0-119,5.93c-3.66-3.34-9.27-6-16.32-1.35-12,7.84-7.86,25,1.81,28.23a78.67,78.67,0,0,0-3.48,22.39c-2.49,4.65-4.32,11-4.71,19.69-.87,19.92,5.61,57.36,42.91,58.74,8.14.3,15.3-.82,21.22-3.3,10.29,0,49.49,0,63.47,0a57.86,57.86,0,0,0,19.55,3.2c23.18,0,39.29,1.74,44.05-10.78C493.67,327,505,324,515.33,317c14.78-.55,25.27-1.51,30.23-8.63C551.65,299.64,548.08,282.56,533.37,277ZM357.5,330.84c-10.46,5.3-19.07,5.25-22.69.29-4.9-6.73.82-19.41,13.38-26.41,10.27-5.73,17.33-4.44,20.66-.88C375.65,311.1,370.25,324.38,357.5,330.84Zm173.81-39.45c-2.24,9-9.86,15.25-14.12,18.27-10.48,7.43-21.78,11.92-30.4,13.62.75-9.86-5.54-21.91-19.79-24.45-12.5-2.23-17.84-.53-31.15-2.6-10-1.56-24.16-12.67-27.11-30.82-2-12.4-1.35-20.18-8.06-21.5-10.21-2-16.36,17.79-15.34,32.42,1.64,23.45,10.15,44.05,26.93,54.84H366.61c13.87-11.29,13.83-30.39,6.15-40.34-6.74-8.75-17-7.83-24.43-5.55-2.38-7.74-4.44-15.19-5.27-18.69C338.73,248.51,318.25,241,304.35,254a75.57,75.57,0,0,1,128.3-45.15c-4.46,5.52-4.4,12.74-4.38,17.41.06,14,12.33,15,16.12,8.68,4.48-7.46,2.12-5.15,9.84-12.48a9.39,9.39,0,0,0,2.64-7.27,55.63,55.63,0,0,1,55.9,32.9c1.73,5.82-2.59,9.15-2.12,15.76.33,4.75,3.75,6.53,8.76,8.57a18.54,18.54,0,0,0,2.87,1.23C529.07,276,533,284.64,531.31,291.39Z" transform="translate(-293.5 -182.17)"/>
    </g>
    <text class="bf55ec02-4678-41cf-be82-11ee13ed949e" transform="translate(52.35 204.24)">Chengdu</text>
  </g>
</svg>
