<svg id="f9439517-8c31-43ac-98d2-aa03e4a6e10d" data-name="图层 1" xmlns="http://www.w3.org/2000/svg" xmlns:xlink="http://www.w3.org/1999/xlink" viewBox="0 0 280 52.92">
  <defs>
    <style>
      .babce0ce-d1e2-4d55-9b37-c3de3b6c14fd, .e5fc3eff-622e-4faf-8b48-7d16cfce7468 {
        fill: none;
      }

      .a0a1637c-9884-49f7-8133-cfe4331efa3a {
        fill: #221f20;
      }

      .a2f70f38-1d00-480a-a8c5-a7e1af776afb {
        clip-path: url(#bcc4a62f-7ad9-4d5a-9ff0-b69b57219485);
      }

      .a059149c-203a-4573-85d2-a7e005bc361a {
        fill: #01486a;
      }

      .b679fef1-cfa8-4c84-868a-4c8b247a4dae {
        fill: #3ba937;
      }

      .e5fc3eff-622e-4faf-8b48-7d16cfce7468 {
        stroke: #040000;
        stroke-miterlimit: 10;
      }
    </style>
    <clipPath id="bcc4a62f-7ad9-4d5a-9ff0-b69b57219485" transform="translate(-137.35 -455.49)">
      <rect id="bfa7468a-4394-43b5-9679-91ff11046dca" data-name="SVGID" class="babce0ce-d1e2-4d55-9b37-c3de3b6c14fd" x="212.95" y="448.34" width="227.28" height="67.21"/>
    </clipPath>
  </defs>
  <g id="ab6474f5-b381-4cb9-85ad-3fb15ed1aa1d" data-name="ffae145c-560d-48fa-92b2-848cf6346b5d">
    <g>
      <path class="a0a1637c-9884-49f7-8133-cfe4331efa3a" d="M186.52,479.49a2.19,2.19,0,0,0,.8-2.89,4.79,4.79,0,0,0-4.92-2.6,5.57,5.57,0,0,0-4.75,3.93c-1.11,3.19,1.16,7.4,5.13,5.77C184.59,483,183.87,481.34,186.52,479.49Z" transform="translate(-137.35 -455.49)"/>
      <path class="a0a1637c-9884-49f7-8133-cfe4331efa3a" d="M190.11,481.92c-.82,1.12,1.67,3.27,2.5,2.22,1-1.29,1.4-3.21-.23-3.21A3.35,3.35,0,0,0,190.11,481.92Z" transform="translate(-137.35 -455.49)"/>
      <path class="a0a1637c-9884-49f7-8133-cfe4331efa3a" d="M194.67,480.12a4.82,4.82,0,0,0-2.68-2,14.27,14.27,0,0,0-6.93-11.84,3.71,3.71,0,0,0-4.1-4.51,4.69,4.69,0,0,0-3.84,2.43c-.32,0-.64,0-1,.07-.74-1.88-2.69-2.57-4.71-1.17a19.25,19.25,0,0,0-27.21.06c-.43.43-.84.89-1.23,1.36a2.93,2.93,0,0,0-3.9-.32c-2.86,1.87-1.87,6,.44,6.74a18.38,18.38,0,0,0-.83,5.35,10.79,10.79,0,0,0-1.13,4.71c-.21,4.76,1.34,13.7,10.25,14a11.87,11.87,0,0,0,5.07-.79h15.17a13.74,13.74,0,0,0,4.67.77c5.54,0,9.39.41,10.53-2.58a18.28,18.28,0,0,0,7.08-2.72c3.53-.13,6-.36,7.22-2.06C199,485.53,198.19,481.45,194.67,480.12Zm-42,12.87c-2.5,1.26-4.56,1.25-5.42.07-1.17-1.61.19-4.64,3.19-6.31,2.46-1.37,4.15-1.06,4.94-.21C157,488.27,155.7,491.44,152.65,493Zm41.53-9.43a8.28,8.28,0,0,1-3.37,4.37,19.85,19.85,0,0,1-7.27,3.25,5.55,5.55,0,0,0-4.73-5.84c-3-.53-4.26-.13-7.44-.62-2.39-.37-5.77-3-6.48-7.37-.48-3-.32-4.82-1.92-5.13-2.44-.48-3.91,4.25-3.67,7.74.39,5.61,2.43,10.53,6.44,13.11H154.83a7.2,7.2,0,0,0,1.46-9.64c-1.61-2.09-4.06-1.87-5.83-1.33-.57-1.85-1.06-3.63-1.26-4.46-1-4.32-5.93-6.12-9.25-3a18.06,18.06,0,0,1,30.66-10.79,6.3,6.3,0,0,0-1.05,4.16c0,3.34,2.95,3.58,3.85,2.07a7.76,7.76,0,0,1,2.35-3,2.23,2.23,0,0,0,.63-1.74,13.3,13.3,0,0,1,13.36,7.87c.41,1.39-.62,2.18-.51,3.76.08,1.14.9,1.56,2.1,2a4.48,4.48,0,0,0,.68.29,3.74,3.74,0,0,1,2.16,4.24Z" transform="translate(-137.35 -455.49)"/>
    </g>
    <g>
      <path class="a0a1637c-9884-49f7-8133-cfe4331efa3a" d="M154.28,502.85a1.63,1.63,0,0,0-.53-.06,1.42,1.42,0,0,0-1,.31,1.26,1.26,0,0,0-.43,1,1.16,1.16,0,0,0,.34.86,1.18,1.18,0,0,0,.88.33,1.41,1.41,0,0,0,.72-.19c0,.11-.07.3-.13.57s-.07.38-.1.58a3.1,3.1,0,0,1-1.09.16,2.91,2.91,0,0,1-2-.8,3,3,0,0,1-.92-2.28,2.88,2.88,0,0,1,.79-2.09,3.1,3.1,0,0,1,2.34-.85,4,4,0,0,1,1,.08Z" transform="translate(-137.35 -455.49)"/>
      <path class="a0a1637c-9884-49f7-8133-cfe4331efa3a" d="M160.3,500.48c-.05.62-.1,1.62-.17,3,0,.66-.06,1.58-.11,2.77h-1.91l0-1.27-.28.11-.34.17-.2-.46c0-.1-.11-.24-.2-.43l0,1.88h-2.12l-.11-2.77c0-.72-.07-1.73-.17-3h2.65l-.19,3.56a3.09,3.09,0,0,0,.53,0l.43,0-.19-3.55Z" transform="translate(-137.35 -455.49)"/>
      <path class="a0a1637c-9884-49f7-8133-cfe4331efa3a" d="M164.57,500.48l-.17,2.39-.6-.08-.69,0-.06.72c.28,0,.72,0,1.35,0l-.13.52c0,.15-.06.33-.09.53l-.55-.07H163l0,.85c.19,0,.54,0,1-.06a2,2,0,0,0,.48-.09c0,.08-.07.27-.14.57s-.08.34-.13.58h-3.38l-.11-3c0-.67-.07-1.62-.14-2.83Z" transform="translate(-137.35 -455.49)"/>
      <path class="a0a1637c-9884-49f7-8133-cfe4331efa3a" d="M169.52,500.48c0,.51-.08,1.39-.15,2.66,0,.93-.07,2-.09,3.2l-1.5-1.15-1.31-.92,0,2h-1.22c0-.51-.06-1.48-.14-2.89-.06-1.14-.12-2.11-.19-2.9h1.89l1.4,1.33c0-.31,0-.55,0-.72a5.66,5.66,0,0,0,0-.61Z" transform="translate(-137.35 -455.49)"/>
      <path class="a0a1637c-9884-49f7-8133-cfe4331efa3a" d="M174.87,503.79c0,.21-.07.62-.12,1.21,0,.35,0,.77-.07,1.26a6.07,6.07,0,0,1-1.47.15,4,4,0,0,1-2.34-.65,2.66,2.66,0,0,1-1.06-2.3,2.86,2.86,0,0,1,.93-2.28,3.32,3.32,0,0,1,2.3-.77,7.54,7.54,0,0,1,1.16.08l.2,2.37a2.13,2.13,0,0,0-.71-.09,1.7,1.7,0,0,0-1.06.36,1.21,1.21,0,0,0-.52,1,1,1,0,0,0,.45.91,1.39,1.39,0,0,0,.86.26l0-.76c0-.15-.05-.41-.11-.77Z" transform="translate(-137.35 -455.49)"/>
      <path class="a0a1637c-9884-49f7-8133-cfe4331efa3a" d="M180.21,503.42a2.76,2.76,0,0,1-.84,2.15,3.47,3.47,0,0,1-2.46.81,9.2,9.2,0,0,1-1.57-.1l-.1-2.8c0-.72-.09-1.71-.18-3a12.27,12.27,0,0,1,1.71-.11,3.73,3.73,0,0,1,2.48.74A2.77,2.77,0,0,1,180.21,503.42Zm-1.54.46a1,1,0,0,0-.36-.82,1.21,1.21,0,0,0-.76-.2l-.06,2.37a1.23,1.23,0,0,0,.79-.32A1.35,1.35,0,0,0,178.67,503.88Z" transform="translate(-137.35 -455.49)"/>
      <path class="a0a1637c-9884-49f7-8133-cfe4331efa3a" d="M185.6,500.48l-.09,2.44c0,.69,0,1.75,0,3.16a5.94,5.94,0,0,1-2,.34,3,3,0,0,1-1.88-.49,2.38,2.38,0,0,1-.78-1.3,14.71,14.71,0,0,1-.24-1.87c-.07-.83-.12-1.59-.13-2.28h2.43c0,.33,0,.87,0,1.62v1.77a3.36,3.36,0,0,0,.15,1.18.62.62,0,0,0,.62.33.74.74,0,0,0,.29-.08c0-.51,0-1.34,0-2.46,0-.57-.07-1.35-.14-2.36Z" transform="translate(-137.35 -455.49)"/>
    </g>
  </g>
  <g class="a2f70f38-1d00-480a-a8c5-a7e1af776afb">
    <g class="a2f70f38-1d00-480a-a8c5-a7e1af776afb">
      <g>
        <path class="a059149c-203a-4573-85d2-a7e005bc361a" d="M296.88,470.37l-3.43,9.4H292.1l-2.45-6.67c-.79,2.19-1.7,4.45-2.44,6.67h-1.35l-3.42-9.4h1.83l2.27,6.18,2.28-6.2h1.68l2.27,6.2,2.28-6.2Z" transform="translate(-137.35 -455.49)"/>
        <path class="a059149c-203a-4573-85d2-a7e005bc361a" d="M324.09,472.92h-1.73v-.74a.09.09,0,0,0-.09-.09H316.5a.09.09,0,0,0-.09.09V478a.09.09,0,0,0,.09.09h5.76a.08.08,0,0,0,.1-.08h0v-1.78h-2.13v-1.72h3.86V478a1.81,1.81,0,0,1-1.83,1.81H316.5a1.81,1.81,0,0,1-1.81-1.81v-5.78a1.81,1.81,0,0,1,1.81-1.81h5.76a1.82,1.82,0,0,1,1.83,1.81h0Z" transform="translate(-137.35 -455.49)"/>
        <polygon class="a059149c-203a-4573-85d2-a7e005bc361a" points="200.9 16.6 193.99 16.6 193.99 18.72 199.56 18.72 199.56 20.44 193.99 20.44 193.99 22.56 200.9 22.56 200.9 24.28 192.25 24.28 192.25 14.88 200.9 14.88 200.9 16.6"/>
        <polygon class="a059149c-203a-4573-85d2-a7e005bc361a" points="213.77 14.88 215.51 14.88 215.51 24.28 213.63 24.28 207.83 17.39 207.83 24.28 206.1 24.28 206.1 14.88 207.98 14.88 213.77 21.77 213.77 14.88"/>
        <rect class="a059149c-203a-4573-85d2-a7e005bc361a" x="220.58" y="14.88" width="1.72" height="9.41"/>
        <polygon class="a059149c-203a-4573-85d2-a7e005bc361a" points="235.29 14.88 237.02 14.88 237.02 24.28 235.14 24.28 229.34 17.39 229.34 24.28 227.62 24.28 227.62 14.88 229.5 14.88 235.29 21.77 235.29 14.88"/>
        <path class="a059149c-203a-4573-85d2-a7e005bc361a" d="M389,472.92h-1.74v-.74a.09.09,0,0,0-.09-.09h-5.76a.09.09,0,0,0-.09.09V478a.09.09,0,0,0,.09.09h5.76a.09.09,0,0,0,.09-.09v-1.78h-2.13v-1.72H389V478a1.81,1.81,0,0,1-1.83,1.81h-5.76a1.81,1.81,0,0,1-1.82-1.8h0v-5.78a1.81,1.81,0,0,1,1.81-1.81h5.77a1.82,1.82,0,0,1,1.83,1.81h0Z" transform="translate(-137.35 -455.49)"/>
        <polygon class="a059149c-203a-4573-85d2-a7e005bc361a" points="265.55 16.6 258.64 16.6 258.64 18.72 264.2 18.72 264.2 20.44 258.64 20.44 258.64 22.56 265.55 22.56 265.55 24.28 256.9 24.28 256.9 14.88 265.55 14.88 265.55 16.6"/>
        <polygon class="a059149c-203a-4573-85d2-a7e005bc361a" points="278.25 14.88 279.99 14.88 279.99 24.28 278.11 24.28 272.31 17.39 272.31 24.28 270.58 24.28 270.58 14.88 272.47 14.88 278.25 21.77 278.25 14.88"/>
        <path class="a059149c-203a-4573-85d2-a7e005bc361a" d="M308.27,472.18c-.37-1.11-.81-1.81-1.81-1.81h-2.84c-1,0-1.44.7-1.81,1.81l-2.73,7.59h1.78l1.15-3.16h6.09l1.15,3.16H311Zm-5.68,2.71.94-2.71c0-.06,0-.09.09-.09h2.86s.06,0,.09.09l.94,2.71Z" transform="translate(-137.35 -455.49)"/>
        <path class="b679fef1-cfa8-4c84-868a-4c8b247a4dae" d="M287.83,487.19h.83v4.56a1,1,0,0,1-1,1H284.1a1,1,0,0,1-1-1v-4.56H284v4.56a.18.18,0,0,0,.17.17h3.56a.17.17,0,0,0,.17-.17Z" transform="translate(-137.35 -455.49)"/>
        <polygon class="b679fef1-cfa8-4c84-868a-4c8b247a4dae" points="158.1 31.7 158.94 31.7 158.94 37.26 157.95 37.26 154.21 32.81 154.21 37.26 153.37 37.26 153.37 31.7 154.36 31.7 158.1 36.15 158.1 31.7"/>
        <rect class="b679fef1-cfa8-4c84-868a-4c8b247a4dae" x="161.02" y="31.7" width="0.83" height="5.57"/>
        <polygon class="b679fef1-cfa8-4c84-868a-4c8b247a4dae" points="169.1 31.7 170.05 31.7 166.85 37.26 166.01 37.26 162.8 31.7 163.76 31.7 166.43 36.32 169.1 31.7"/>
        <polygon class="b679fef1-cfa8-4c84-868a-4c8b247a4dae" points="175.92 32.53 171.65 32.53 171.65 34.06 175.08 34.06 175.08 34.9 171.65 34.9 171.65 36.43 175.92 36.43 175.92 37.26 170.82 37.26 170.82 31.7 175.92 31.7 175.92 32.53"/>
        <path class="b679fef1-cfa8-4c84-868a-4c8b247a4dae" d="M320.84,489.76a1,1,0,0,1-1,1h-.57l1.57,1.87v.11h-1l-1.67-2H316.1v2h-.83V487.2h4.56a1,1,0,0,1,1,1ZM316.11,488v1.9h3.73a.16.16,0,0,0,.17-.17V488.2a.18.18,0,0,0-.17-.17Z" transform="translate(-137.35 -455.49)"/>
        <path class="b679fef1-cfa8-4c84-868a-4c8b247a4dae" d="M366.19,489.76a1,1,0,0,1-1,1h-.56l1.56,1.87v.11h-1l-1.67-2h-2.08v2h-.83V487.2h4.56a1,1,0,0,1,1,1ZM361.46,488v1.9h3.73a.16.16,0,0,0,.17-.17V488.2a.18.18,0,0,0-.17-.17Z" transform="translate(-137.35 -455.49)"/>
        <path class="b679fef1-cfa8-4c84-868a-4c8b247a4dae" d="M402.58,489.76a1,1,0,0,1-1,1H401l1.57,1.87v.11h-1l-1.67-2h-2.07v2H397V487.2h4.56a1,1,0,0,1,1,1ZM397.85,488v1.9h3.72a.16.16,0,0,0,.17-.17V488.2a.18.18,0,0,0-.17-.17Z" transform="translate(-137.35 -455.49)"/>
        <path class="b679fef1-cfa8-4c84-868a-4c8b247a4dae" d="M328.4,488.55h-.84v-.33a.17.17,0,0,0-.17-.17h-3.55a.19.19,0,0,0-.17.17v1.19a.17.17,0,0,0,.17.17h3.55a1,1,0,0,1,1,1v1.17a1,1,0,0,1-1,1h-3.55a1,1,0,0,1-1-1v-.33h.84v.33a.18.18,0,0,0,.17.17h3.55a.16.16,0,0,0,.17-.17v-1.2a.17.17,0,0,0-.17-.17h-3.56a1,1,0,0,1-1-1v-1.19a1,1,0,0,1,1-1h3.55a1,1,0,0,1,1,1Z" transform="translate(-137.35 -455.49)"/>
        <rect class="b679fef1-cfa8-4c84-868a-4c8b247a4dae" x="193.09" y="31.7" width="0.83" height="5.57"/>
        <polygon class="b679fef1-cfa8-4c84-868a-4c8b247a4dae" points="200.87 31.7 200.87 32.53 198.5 32.53 198.5 37.26 197.66 37.26 197.66 32.53 195.3 32.53 195.3 31.7 200.87 31.7"/>
        <polygon class="b679fef1-cfa8-4c84-868a-4c8b247a4dae" points="207.41 31.7 204.85 35.18 204.85 37.26 204.01 37.26 204.01 35.18 201.45 31.7 202.43 31.7 204.43 34.23 206.42 31.7 207.41 31.7"/>
        <polygon class="b679fef1-cfa8-4c84-868a-4c8b247a4dae" points="235.99 32.53 231.72 32.53 231.72 34.06 235.16 34.06 235.16 34.9 231.72 34.9 231.72 36.43 235.99 36.43 235.99 37.26 230.89 37.26 230.89 31.7 235.99 31.7 235.99 32.53"/>
        <path class="b679fef1-cfa8-4c84-868a-4c8b247a4dae" d="M380.6,488.55h-.83v-.33a.18.18,0,0,0-.17-.17H376a.19.19,0,0,0-.17.17v1.19a.17.17,0,0,0,.17.17h3.56a1,1,0,0,1,1,1v1.17a1,1,0,0,1-1,1H376a1,1,0,0,1-1-1v-.33h.83v.33a.18.18,0,0,0,.17.17h3.56a.17.17,0,0,0,.17-.17v-1.2a.18.18,0,0,0-.17-.17H376a1,1,0,0,1-1-1v-1.19a1,1,0,0,1,1-1h3.56a1,1,0,0,1,1,1Z" transform="translate(-137.35 -455.49)"/>
        <polygon class="b679fef1-cfa8-4c84-868a-4c8b247a4dae" points="250.41 32.53 246.14 32.53 246.14 34.06 249.57 34.06 249.57 34.9 246.14 34.9 246.14 36.43 250.41 36.43 250.41 37.26 245.31 37.26 245.31 31.7 250.41 31.7 250.41 32.53"/>
        <path class="b679fef1-cfa8-4c84-868a-4c8b247a4dae" d="M393.1,487.19c.56,0,.88.42,1.09,1l1.62,4.56H395l-.73-1.95h-3.86l-.71,1.95h-.84l1.68-4.56c.22-.62.45-1,1-1ZM394,490l-.69-1.78a.17.17,0,0,0-.17-.17h-1.62c-.1,0-.12.05-.17.17l-.67,1.78Z" transform="translate(-137.35 -455.49)"/>
        <path class="b679fef1-cfa8-4c84-868a-4c8b247a4dae" d="M405.48,488a.18.18,0,0,0-.17.17v3.56a.17.17,0,0,0,.17.17H410v.83h-4.54a1,1,0,0,1-1-1v-3.56a1,1,0,0,1,1-1H410V488Z" transform="translate(-137.35 -455.49)"/>
        <polygon class="b679fef1-cfa8-4c84-868a-4c8b247a4dae" points="280 31.7 280 37.26 279.17 37.26 279.17 34.9 275.14 34.9 275.14 37.26 274.3 37.26 274.3 31.7 275.14 31.7 275.14 34.06 279.17 34.06 279.17 31.7 280 31.7"/>
        <path class="b679fef1-cfa8-4c84-868a-4c8b247a4dae" d="M355.55,491.93l-1-.61v-1.6h-.84v1.07l-3.06-1.92h0a.18.18,0,0,1-.09-.14v-.52a.19.19,0,0,1,.17-.17h2.06a.18.18,0,0,1,.17.17v.34h.83V488a1,1,0,0,0-1-.84h-2.06a1,1,0,0,0-1,1v.62c0,.29.16.39.43.55H350c-.56,0-1,.16-1,.72v1.69a1,1,0,0,0,1,1h3.55a1,1,0,0,0,.95-.66h0l1,.66Zm-1.82-.18a.15.15,0,0,1-.15.17H350a.17.17,0,0,1-.17-.17V490a.25.25,0,0,1,.2-.1h1l2.67,1.69Z" transform="translate(-137.35 -455.49)"/>
        <path class="a059149c-203a-4573-85d2-a7e005bc361a" d="M277.05,492.83c.54-.5-1.2-1.09-1.2-1.09s-1.86-.85-9.26-1.46v2.55H255.15v-2.92c-2.28-.06-6.79,0-9.93,0v2.92h-11.4v-2.55a73.36,73.36,0,0,0-8.23,1l-.61.5c-.62.41,0,.57.43.77.16.08.17.13.11.3s-.42.21-.35.44c.15.48.85,0,.8.65s-1.71.32-1.88,1,.61,0,.6,1.09.76,2.1,2.91,2.63c.51.13,2.91.09,1.68.8a3.59,3.59,0,0,1-.81.09c-.24,0-.78,0-.93.21s.26.33.19.64c-.28,0-.88,0-.62.5a1,1,0,0,0,.83.36,4,4,0,0,1,1.57.1c-.75.14-1.43.92,1.39.84,0,.43.82.35,1,.35,17.52-3.88,25.1-2.23,25.15-3.31-.25-.52-2.72-.47-3.13-.48-1.6-.08-5,.09-4.81-.32.09-1,17.85-.72,15.77-.13a11.93,11.93,0,0,0-1.5.32c-1,.51,2.72.61,3.11.65s1.54,0,1.34.48c-.06.15-1.38,0-1.32.2s.79.08.86.2c.54.84-6.53.43-10.18.5-1.07,0-3.17.15-4.26.29-1.85.25-.27.68,2.6.95,1.54.14,9.46.78,16.18,1.66,2,.37,2.62-.63,2.17-.9-.26-.15.85-.71-.39-1.24-.78-.33-.14-.47-.09-.45s1.72.41,1.12-.12c-.38-.35.26-.15.38-.16,1.49-.11,1.14-.67,1.24-.58-.45-.44.75-.75.48-1.72-.09-.29-1.8-.23-.67-.46.12,0,1.69,0,.24-.84a4,4,0,0,0-1.14-.32c-1.07-.24-.27-.78.27-.69s1.31-.33,1.2-1c-.14-.86-.43-2.09.45-2.26" transform="translate(-137.35 -455.49)"/>
        <polygon class="b679fef1-cfa8-4c84-868a-4c8b247a4dae" points="98.17 11.36 98.17 37.34 107.87 37.34 107.87 21.15 117.8 21.15 117.8 37.34 127.5 37.34 127.5 11.36 98.17 11.36"/>
      </g>
    </g>
  </g>
  <line class="e5fc3eff-622e-4faf-8b48-7d16cfce7468" x1="73.82" x2="73.82" y2="52.92"/>
</svg>
